<svg aria-hidden="true" style="position:absolute;width:0;height:0;overflow:hidden" xmlns="http://www.w3.org/2000/svg">
  <defs>
    <symbol id="icon-arrow-right" viewBox="0 0 42 32">
      <path d="M4.75 17.396h28.503l-9.428 9.306 2.067 2.04 10.734-10.631h.036l2.031-2.004-2.031-2.04h-.036L25.892 3.436l-2.067 2.04 9.211 9.056H4.751v2.864z"/>
    </symbol>
    <symbol id="icon-client1" viewBox="0 0 78 32">
      <path d="M0 0h77.867v32H0V0z"/>
    </symbol>
    <symbol id="icon-client2" viewBox="0 0 78 32">
      <path d="M0 0h77.867v32H0V0z"/>
    </symbol>
    <symbol id="icon-client3" viewBox="0 0 78 32">
      <path d="M0 0h77.867v32H0V0z"/>
    </symbol>
    <symbol id="icon-client4" viewBox="0 0 78 32">
      <path d="M0 0h77.867v32H0V0z"/>
    </symbol>
    <symbol id="icon-client5" viewBox="0 0 63 32">
      <path d="M0 0h62.933v32H0V0z"/>
    </symbol>
    <symbol id="icon-linkedin" viewBox="0 0 32 32">
      <path d="M29.638 0H2.362A2.36 2.36 0 0 0 0 2.362v27.276A2.362 2.362 0 0 0 2.362 32h27.276A2.362 2.362 0 0 0 32 29.638V2.362A2.36 2.36 0 0 0 29.638 0zm-20.1 27.26H4.727V11.978h4.811V27.26zM7.129 9.86a2.768 2.768 0 0 1-2.541-1.716 2.763 2.763 0 1 1 5.319-1.043A2.723 2.723 0 0 1 7.129 9.86zm20.142 17.413h-4.809v-8.349c0-2.462-1.047-3.222-2.398-3.222-1.427 0-2.827 1.075-2.827 3.284v8.287h-4.811V11.989h4.627v2.118h.062c.465-.94 2.091-2.547 4.573-2.547 2.684 0 5.585 1.593 5.585 6.26l-.002 9.453z"/>
    </symbol>
    <symbol id="icon-twitter" viewBox="0 0 38 32">
      <path d="M11.893 31.364c14.271 0 22.077-11.823 22.077-22.077 0-.336 0-.67-.023-1.003a15.775 15.775 0 0 0 3.871-4.016 15.476 15.476 0 0 1-4.456 1.221 7.785 7.785 0 0 0 3.411-4.292 15.525 15.525 0 0 1-4.927 1.883 7.767 7.767 0 0 0-13.223 7.076A22.02 22.02 0 0 1 2.632 2.049a7.766 7.766 0 0 0 2.402 10.357 7.688 7.688 0 0 1-3.522-.971v.098a7.765 7.765 0 0 0 6.225 7.606 7.737 7.737 0 0 1-3.503.133 7.766 7.766 0 0 0 7.249 5.388A15.564 15.564 0 0 1 0 27.876a21.963 21.963 0 0 0 11.893 3.479z"/>
    </symbol>
    <symbol id="icon-yootube" viewBox="0 0 32 32">
      <path d="M31.362 8.247A4.02 4.02 0 0 0 28.533 5.4c-2.502-.673-12.502-.673-12.502-.673s-10 0-12.502.673A4.02 4.02 0 0 0 .7 8.247C.031 10.76.031 16 .031 16s0 5.24.669 7.753A4.02 4.02 0 0 0 3.529 26.6c2.502.673 12.502.673 12.502.673s10 0 12.502-.673a4.02 4.02 0 0 0 2.829-2.847c.669-2.513.669-7.753.669-7.753s0-5.24-.669-7.753z"/>
      <path d="M12.76 20.758v-9.516L21.124 16l-8.364 4.758z"/>
    </symbol>
    <symbol id="icon-logo" viewBox="0 0 75 24">
<path d="M49.3908 1.19019H46.7675V22.4634H49.3908V1.19019Z" />
<path d="M56.078 1.19019H53.4547V22.4634H56.078V1.19019Z" />
<path d="M73.7314 8.11546L72.4197 10.9721C71.2156 8.91618 69.1084 7.74756 66.6356 7.74756C62.2061 7.74756 59.1958 11.1236 59.1958 15.2787C59.1958 19.4338 62.2061 22.8098 66.6356 22.8098C68.9793 22.8098 71.0006 21.7494 72.2262 19.8882V22.4635H75V8.11546H73.7314ZM67.0441 21.2733C63.9263 21.2733 62.2061 18.7196 62.2061 15.2787C62.2061 11.7512 63.9263 9.28408 67.0441 9.28408C69.9039 9.28408 72.0327 11.7944 72.0327 15.2787C72.0327 18.7629 69.9039 21.2733 67.0441 21.2733Z" />
<path d="M23.115 9.2624C22.2764 10.0631 21.6313 11.0586 21.2658 12.1623L19.9112 8.09378H18.6425V22.4418H21.4163V16.9883C21.4163 15.0189 21.6313 13.3742 22.4269 12.2056C23.115 11.2101 24.2976 10.6042 25.7813 10.6042C26.2543 10.6042 26.7274 10.6474 27.2004 10.734V7.98558C26.9209 7.9423 26.6414 7.92065 26.3618 7.92065C25.1577 7.9423 23.9966 8.4184 23.115 9.2624Z"/>
<path d="M35.7368 7.74756C31.2858 7.74756 28.125 10.9937 28.125 15.2787C28.125 19.5636 31.2213 22.8098 35.7153 22.8098C37.3925 22.8314 39.0482 22.3337 40.4458 21.3815C41.6069 20.4942 42.4455 19.239 42.8326 17.8107H39.9728C39.5427 19.6285 38.4246 21.2949 35.9088 21.2949C32.3609 21.2949 31.2213 18.5032 31.1568 15.5167V15.4734H43.1551C43.1551 15.3219 43.1551 15.2137 43.1551 15.1272C43.1766 10.8422 40.1448 7.74756 35.7368 7.74756ZM35.7583 9.26244C38.8976 9.26244 39.8867 11.8377 39.9728 13.9153H31.2428C31.5009 11.3833 32.791 9.26244 35.7583 9.26244Z" />
<path d="M9.46101 12.0108C12.2778 11.4265 14.4495 9.91158 14.4495 7.27137C14.4495 4.0252 12.0198 2.46704 8.27838 2.46704H0V22.4851H9.15998C12.5358 22.4851 15.2021 20.7538 15.2021 17.0964C15.2021 14.0667 12.6649 12.2272 9.46101 12.0108ZM7.33228 3.917C10.0201 3.917 11.4177 5.28039 11.4177 7.42286C11.4177 9.56533 9.89106 11.2317 7.09576 11.2317H3.09633V3.917H7.33228ZM7.69782 20.9918H3.09633V12.8981H7.22477C10.1706 12.8981 11.9983 14.348 11.9983 16.9666C11.9983 19.2605 10.4716 20.9918 7.69782 20.9918Z" />
</symbol>
<symbol id="icon-arrow-down" viewBox="0 0 13 8" >
<g clip-path="url(#clip0_1_223)">
<path d="M12.7746 1.18647L11.8363 0.113525L6.89805 5.76058L1.97624 0.113525L1.03796 1.18647L6.89805 7.88764H6.91451L12.7746 1.18647Z" fill="#214E41"/>
</g>
<defs>
<clipPath id="clip0_1_223">
<rect width="12" height="8" fill="white" transform="translate(0.90625 0.000488281)"/>
</clipPath>
</defs>
</symbol>
  </defs>
</svg>
